<mxfile host="app.diagrams.net" agent="Mozilla/5.0 (Windows NT 10.0; Win64; x64) AppleWebKit/537.36 (KHTML, like Gecko) Chrome/131.0.0.0 Safari/537.36" version="25.0.1">
  <diagram id="JFGCBzczWT_QLt3ROa-B" name="Trang-1">
    <mxGraphModel dx="1050" dy="1691" grid="1" gridSize="10" guides="1" tooltips="1" connect="1" arrows="1" fold="1" page="1" pageScale="1" pageWidth="827" pageHeight="1169" math="0" shadow="0">
      <root>
        <mxCell id="0" />
        <mxCell id="1" parent="0" />
        <mxCell id="YL5Ox1Mgzsd_U6M6Mtrv-17" value="&lt;b&gt;&lt;font style=&quot;font-size: 18px;&quot;&gt;Ubuntu Server&lt;/font&gt;&lt;/b&gt;" style="ellipse;whiteSpace=wrap;html=1;aspect=fixed;dashed=1;fillColor=#ffe6cc;strokeColor=#d79b00;" vertex="1" parent="1">
          <mxGeometry x="30" y="-460" width="320" height="320" as="geometry" />
        </mxCell>
        <mxCell id="YL5Ox1Mgzsd_U6M6Mtrv-9" value="" style="ellipse;whiteSpace=wrap;html=1;aspect=fixed;dashed=1;fillColor=#f5f5f5;fontColor=#333333;strokeColor=#666666;" vertex="1" parent="1">
          <mxGeometry x="440" y="-470" width="320" height="320" as="geometry" />
        </mxCell>
        <mxCell id="YL5Ox1Mgzsd_U6M6Mtrv-1" value="MQ135" style="rounded=1;whiteSpace=wrap;html=1;fillColor=#d5e8d4;strokeColor=#82b366;" vertex="1" parent="1">
          <mxGeometry x="110" y="-430" width="160" height="80" as="geometry" />
        </mxCell>
        <mxCell id="YL5Ox1Mgzsd_U6M6Mtrv-2" value="DHT11" style="rounded=1;whiteSpace=wrap;html=1;fillColor=#d5e8d4;strokeColor=#82b366;" vertex="1" parent="1">
          <mxGeometry x="110" y="-250" width="160" height="80" as="geometry" />
        </mxCell>
        <mxCell id="YL5Ox1Mgzsd_U6M6Mtrv-20" style="rounded=0;orthogonalLoop=1;jettySize=auto;html=1;exitX=1;exitY=0.5;exitDx=0;exitDy=0;entryX=0;entryY=0.5;entryDx=0;entryDy=0;" edge="1" parent="1" source="YL5Ox1Mgzsd_U6M6Mtrv-4" target="YL5Ox1Mgzsd_U6M6Mtrv-6">
          <mxGeometry relative="1" as="geometry" />
        </mxCell>
        <mxCell id="YL5Ox1Mgzsd_U6M6Mtrv-4" value="ESP32-WROM-32D" style="rounded=1;whiteSpace=wrap;html=1;fillColor=#d5e8d4;strokeColor=#82b366;" vertex="1" parent="1">
          <mxGeometry x="110" y="-340" width="160" height="80" as="geometry" />
        </mxCell>
        <mxCell id="YL5Ox1Mgzsd_U6M6Mtrv-28" style="rounded=0;orthogonalLoop=1;jettySize=auto;html=1;exitX=1;exitY=0.5;exitDx=0;exitDy=0;entryX=-0.017;entryY=0.387;entryDx=0;entryDy=0;entryPerimeter=0;" edge="1" parent="1" source="YL5Ox1Mgzsd_U6M6Mtrv-5" target="YL5Ox1Mgzsd_U6M6Mtrv-7">
          <mxGeometry relative="1" as="geometry" />
        </mxCell>
        <mxCell id="YL5Ox1Mgzsd_U6M6Mtrv-5" value="MQTT Broker" style="rounded=1;whiteSpace=wrap;html=1;fillColor=#f8cecc;strokeColor=#b85450;" vertex="1" parent="1">
          <mxGeometry x="520" y="-410" width="160" height="80" as="geometry" />
        </mxCell>
        <mxCell id="YL5Ox1Mgzsd_U6M6Mtrv-29" style="rounded=0;orthogonalLoop=1;jettySize=auto;html=1;exitX=1;exitY=0.5;exitDx=0;exitDy=0;entryX=-0.017;entryY=0.667;entryDx=0;entryDy=0;entryPerimeter=0;" edge="1" parent="1" source="YL5Ox1Mgzsd_U6M6Mtrv-6" target="YL5Ox1Mgzsd_U6M6Mtrv-7">
          <mxGeometry relative="1" as="geometry" />
        </mxCell>
        <mxCell id="YL5Ox1Mgzsd_U6M6Mtrv-6" value="Log Storage" style="rounded=1;whiteSpace=wrap;html=1;fillColor=#f8cecc;strokeColor=#b85450;" vertex="1" parent="1">
          <mxGeometry x="520" y="-290" width="160" height="80" as="geometry" />
        </mxCell>
        <mxCell id="YL5Ox1Mgzsd_U6M6Mtrv-7" value="Web App" style="rounded=1;whiteSpace=wrap;html=1;fillColor=#fff2cc;strokeColor=#d6b656;" vertex="1" parent="1">
          <mxGeometry x="840" y="-350" width="160" height="80" as="geometry" />
        </mxCell>
        <mxCell id="YL5Ox1Mgzsd_U6M6Mtrv-19" value="" style="endArrow=classic;html=1;rounded=0;entryX=0;entryY=0.5;entryDx=0;entryDy=0;" edge="1" parent="1" target="YL5Ox1Mgzsd_U6M6Mtrv-5">
          <mxGeometry width="50" height="50" relative="1" as="geometry">
            <mxPoint x="270" y="-300" as="sourcePoint" />
            <mxPoint x="320" y="-350" as="targetPoint" />
          </mxGeometry>
        </mxCell>
        <mxCell id="YL5Ox1Mgzsd_U6M6Mtrv-21" value="&lt;b&gt;Wifi &amp;amp; MQTT&lt;/b&gt;" style="text;html=1;align=center;verticalAlign=middle;whiteSpace=wrap;rounded=0;rotation=0;" vertex="1" parent="1">
          <mxGeometry x="354" y="-370" width="76" height="30" as="geometry" />
        </mxCell>
        <mxCell id="YL5Ox1Mgzsd_U6M6Mtrv-22" value="&lt;b style=&quot;forced-color-adjust: none; color: rgb(0, 0, 0); font-family: Helvetica; font-size: 12px; font-style: normal; font-variant-ligatures: normal; font-variant-caps: normal; letter-spacing: normal; orphans: 2; text-align: center; text-indent: 0px; text-transform: none; widows: 2; word-spacing: 0px; -webkit-text-stroke-width: 0px; white-space: normal; background-color: rgb(251, 251, 251); text-decoration-thickness: initial; text-decoration-style: initial; text-decoration-color: initial;&quot;&gt;HTTPS&lt;/b&gt;" style="text;whiteSpace=wrap;html=1;" vertex="1" parent="1">
          <mxGeometry x="370" y="-300" width="100" height="40" as="geometry" />
        </mxCell>
        <mxCell id="YL5Ox1Mgzsd_U6M6Mtrv-23" value="" style="shape=flexArrow;endArrow=classic;html=1;rounded=0;" edge="1" parent="1">
          <mxGeometry width="50" height="50" relative="1" as="geometry">
            <mxPoint x="189.5" y="-440" as="sourcePoint" />
            <mxPoint x="189.5" y="-490" as="targetPoint" />
          </mxGeometry>
        </mxCell>
        <mxCell id="YL5Ox1Mgzsd_U6M6Mtrv-24" value="&lt;font style=&quot;font-size: 19px;&quot;&gt;&lt;b&gt;Phần cứng&lt;/b&gt;&lt;/font&gt;" style="text;html=1;align=center;verticalAlign=middle;whiteSpace=wrap;rounded=0;" vertex="1" parent="1">
          <mxGeometry x="140" y="-530" width="110" height="30" as="geometry" />
        </mxCell>
        <mxCell id="YL5Ox1Mgzsd_U6M6Mtrv-25" value="" style="shape=flexArrow;endArrow=classic;html=1;rounded=0;" edge="1" parent="1">
          <mxGeometry width="50" height="50" relative="1" as="geometry">
            <mxPoint x="599.5" y="-440" as="sourcePoint" />
            <mxPoint x="599.5" y="-490" as="targetPoint" />
          </mxGeometry>
        </mxCell>
        <mxCell id="YL5Ox1Mgzsd_U6M6Mtrv-26" value="&lt;b style=&quot;forced-color-adjust: none; color: rgb(0, 0, 0); font-family: Helvetica; font-size: 19px; font-style: normal; font-variant-ligatures: normal; font-variant-caps: normal; letter-spacing: normal; orphans: 2; text-align: center; text-indent: 0px; text-transform: none; widows: 2; word-spacing: 0px; -webkit-text-stroke-width: 0px; white-space: normal; background-color: rgb(251, 251, 251); text-decoration-thickness: initial; text-decoration-style: initial; text-decoration-color: initial;&quot;&gt;Ubuntu Server&lt;/b&gt;" style="text;whiteSpace=wrap;html=1;" vertex="1" parent="1">
          <mxGeometry x="540" y="-530" width="150" height="50" as="geometry" />
        </mxCell>
        <mxCell id="YL5Ox1Mgzsd_U6M6Mtrv-30" value="&lt;b style=&quot;forced-color-adjust: none; color: rgb(0, 0, 0); font-family: Helvetica; font-size: 12px; font-style: normal; font-variant-ligatures: normal; font-variant-caps: normal; letter-spacing: normal; orphans: 2; text-align: center; text-indent: 0px; text-transform: none; widows: 2; word-spacing: 0px; -webkit-text-stroke-width: 0px; white-space: normal; background-color: rgb(251, 251, 251); text-decoration-thickness: initial; text-decoration-style: initial; text-decoration-color: initial;&quot;&gt;HTTPS&lt;/b&gt;" style="text;whiteSpace=wrap;html=1;" vertex="1" parent="1">
          <mxGeometry x="714" y="-300" width="46" height="20" as="geometry" />
        </mxCell>
        <mxCell id="YL5Ox1Mgzsd_U6M6Mtrv-34" value="&lt;b style=&quot;forced-color-adjust: none; color: rgb(0, 0, 0); font-family: Helvetica; font-size: 12px; font-style: normal; font-variant-ligatures: normal; font-variant-caps: normal; letter-spacing: normal; orphans: 2; text-align: center; text-indent: 0px; text-transform: none; widows: 2; word-spacing: 0px; -webkit-text-stroke-width: 0px; white-space: normal; background-color: rgb(251, 251, 251); text-decoration-thickness: initial; text-decoration-style: initial; text-decoration-color: initial;&quot;&gt;MQTT over WebSocket&lt;/b&gt;" style="text;whiteSpace=wrap;html=1;" vertex="1" parent="1">
          <mxGeometry x="700" y="-390" width="140" height="40" as="geometry" />
        </mxCell>
      </root>
    </mxGraphModel>
  </diagram>
</mxfile>
